<svg xmlns="http://www.w3.org/2000/svg" xmlns:xlink="http://www.w3.org/1999/xlink" viewBox="0,0,256,256" width="48px" height="48px"><g fill="none" fill-rule="nonzero" stroke="none" stroke-width="1" stroke-linecap="butt" stroke-linejoin="none" stroke-miterlimit="10" stroke-dasharray="" stroke-dashoffset="0" font-family="none" font-weight="none" font-size="none" text-anchor="none" style="mix-blend-mode: normal"><path transform="scale(5.33333,5.33333)" d="M19.262,44.037l-7.04719,-7.04719c-0.0016,0.00006 -0.0032,0.00013 -0.00481,0.00019l-3.99,-3.99h0.006l-4.263,-4.263c-2.617,-2.617 -2.617,-6.859 0,-9.475l4.262,-4.262h-0.005l3.99,-3.99c0.00192,0.00008 0.00385,0.00015 0.00577,0.00023l7.04723,-7.04723c2.617,-2.617 6.859,-2.617 9.475,0l7.04719,7.04719c0.0016,-0.00006 0.0032,-0.00013 0.00481,-0.00019l3.99,3.99l-0.006,0l4.263,4.263c2.617,2.617 2.617,6.859 0,9.475l-4.262,4.262h0.005l-3.99,3.99c-0.00192,-0.00008 -0.00385,-0.00015 -0.00577,-0.00023l-7.04723,7.04723c-2.616,2.616 -6.858,2.616 -9.475,0z" id="strokeMainSVG" fill="#000000" stroke="#000000" stroke-linejoin="round"></path><g transform="scale(5.33333,5.33333)" stroke="none" stroke-linejoin="miter"><path d="M19.262,44.037l-8.04,-8.04l-0.222,-0.997l-1.777,-1.003l-5.26,-5.26c-2.617,-2.617 -2.617,-6.859 0,-9.475l5.26,-5.26l1.777,-1.002l0.223,-0.997l8.04,-8.04c2.617,-2.617 6.859,-2.617 9.475,0l8.04,8.04l0.222,0.997l1.777,1.003l5.26,5.26c2.617,2.617 2.617,6.859 0,9.475l-5.26,5.26l-1.777,1.002l-0.223,0.997l-8.04,8.04c-2.616,2.616 -6.858,2.616 -9.475,0z" fill="#37c6d0"></path><path d="M35.79,11.01c-1.76,0.07 -3.4,0.79 -4.63,2.04l-6.81,6.77c-0.09,0.1 -0.22,0.15 -0.35,0.15c-0.13,0 -0.25,-0.05 -0.35,-0.15l-6.8,-6.76c-1.24,-1.26 -2.88,-1.98 -4.64,-2.05l-3.99,3.99h3.68c0.8,0 1.55,0.31 2.12,0.88l6.8,6.78c0.85,0.84 1.98,1.31 3.18,1.31c1.2,0 2.33,-0.47 3.18,-1.31l6.79,-6.78c0.58,-0.57 1.33,-0.88 2.13,-0.88h3.68zM36.1,33c-0.8,0 -1.55,-0.31 -2.12,-0.88l-6.8,-6.78c-0.85,-0.84 -1.98,-1.31 -3.18,-1.31c-1.2,0 -2.33,0.47 -3.18,1.31l-6.79,6.78c-0.58,0.57 -1.33,0.88 -2.13,0.88h-3.68l3.99,3.99c1.76,-0.07 3.4,-0.79 4.63,-2.04l6.81,-6.77c0.09,-0.1 0.22,-0.15 0.35,-0.15c0.13,0 0.25,0.05 0.35,0.15l6.8,6.76c1.24,1.26 2.88,1.98 4.64,2.05l3.99,-3.99z" fill="#000000" opacity="0.05"></path><path d="M36.28,11.5h-0.18c-1.74,0 -3.38,0.68 -4.59,1.91l-6.8,6.77c-0.19,0.19 -0.45,0.29 -0.71,0.29c-0.26,0 -0.52,-0.1 -0.71,-0.29l-6.79,-6.77c-1.22,-1.23 -2.86,-1.91 -4.6,-1.91h-0.18l-3,3h3.18c0.93,0 1.81,0.36 2.48,1.02l6.8,6.78c0.75,0.76 1.75,1.17 2.82,1.17c1.07,0 2.07,-0.41 2.82,-1.17l6.8,-6.77c0.67,-0.67 1.55,-1.03 2.48,-1.03h3.18zM36.1,33.5c-0.93,0 -1.81,-0.36 -2.48,-1.02l-6.8,-6.78c-0.75,-0.76 -1.75,-1.17 -2.82,-1.17c-1.07,0 -2.07,0.41 -2.82,1.17l-6.8,6.77c-0.67,0.67 -1.55,1.03 -2.48,1.03h-3.18l3,3h0.18c1.74,0 3.38,-0.68 4.59,-1.91l6.8,-6.77c0.19,-0.19 0.45,-0.29 0.71,-0.29c0.26,0 0.52,0.1 0.71,0.29l6.79,6.77c1.22,1.23 2.86,1.91 4.6,1.91h0.18l3,-3z" fill="#000000" opacity="0.07"></path><path d="M38.78,14h-2.68c-1.07,0 -2.07,0.42 -2.83,1.17l-6.8,6.78c-0.68,0.68 -1.58,1.02 -2.47,1.02c-0.89,0 -1.79,-0.34 -2.47,-1.02l-6.8,-6.78c-0.76,-0.75 -1.76,-1.17 -2.83,-1.17h-2.68l2,-2h0.68c1.6,0 3.11,0.62 4.24,1.76l6.8,6.77c0.59,0.59 1.53,0.59 2.12,0l6.8,-6.77c1.13,-1.14 2.64,-1.76 4.24,-1.76h0.68zM36.1,34c-1.07,0 -2.07,-0.42 -2.83,-1.17l-6.8,-6.78c-1.36,-1.36 -3.58,-1.36 -4.94,0l-6.8,6.78c-0.76,0.75 -1.76,1.17 -2.83,1.17h-2.68l2,2h0.68c1.6,0 3.11,-0.62 4.24,-1.76l6.8,-6.77c0.59,-0.59 1.53,-0.59 2.12,0l6.8,6.77c1.13,1.14 2.64,1.76 4.24,1.76h0.68l2,-2z" fill="#ffffff"></path></g></g></svg>